<svg xmlns="http://www.w3.org/2000/svg" viewBox="0 0 83.85 83.85"><defs><style>.cls-1{fill:#0071bc;}</style></defs><g id="object"><path class="cls-1" d="M51.73,20.41a29.24,29.24,0,0,0,1.58-4,2.79,2.79,0,0,0,.08-2.13c-.71,1.49-1.81,1.71-3.22,1.5a7.07,7.07,0,0,0-3.61.73,3.76,3.76,0,0,1-1.49.29,2.17,2.17,0,0,1-1.49-.5,1.37,1.37,0,0,0-.94-.57,2.68,2.68,0,0,0-1.33.58A4.6,4.6,0,0,0,40.05,18c-2,3.64-4.09,7.33-6.14,11.14a3.06,3.06,0,0,1-1.25,1.51c1.57-3.52,3.07-6.63,4.64-9.71a57.65,57.65,0,0,0-6,9.31c-1.73,3.37-3.54,6.71-5.27,10-.55,0-.47-.27-.47-.42.32-6.59.65-13.17,1.05-19.73.08-1.72-.08-3.59,1-5.22,0-.08-.15-.23-.39-.53-.39,1.94-1.88,1.5-3.14,1.5a5.07,5.07,0,0,0-1,.08,1.6,1.6,0,0,0-1.72,1.21c-.48,1.29-1.18,2.5-1.73,3.79l-.24-.14a22.2,22.2,0,0,0,.47-2.35c.24-1.52.16-1.52-1.48-1.58-.4,0-.95.23-1.18-.38-.08-.38,0-.83-.55-.75-.39.07-.63.53-.7.91a7.71,7.71,0,0,0-.48,1.22c-2,7-4.47,13.86-6.36,20.93-1.64,6-3.37,12-4.93,18.15-.71,2.57-1.1,5.2-1.72,8.25,1.32-1.33,1.4-2.74,2.58-4.11-.4,3.08-.79,5.78-1.1,8.47C5.92,66,7.18,62.18,9.21,58.73c0,1.09-.7,2.24-.55,3.38,1.25-2.6,2.43-5.26,3.53-7.88L13.36,51c.24-.56.47-1,.71-1.59.94-2.13,1.57-4.23,2.43-6.34s.94-4.24,2.28-6.58c.15,3.79.3,7.26.54,10.65.55-2.76.55-5.56,1.41-8.32-.55,6.82-.25,13.52-.49,20.34A47.15,47.15,0,0,0,24.16,53c1.18-2,2.36-4.07,3.61-6.08s2.44-4.09,3.7-6.14A34,34,0,0,1,35.55,35C33,43.92,30.19,53,28.38,62.5c1.25-1.23,1.41-2.5,2.51-3.48a15.56,15.56,0,0,1-.32,1.87c-.16,1.27-.32,2.55-.47,3.82a16.67,16.67,0,0,0-.32,2c2-3.39,3.22-7,5.42-10.59-.08,1.4-.94,2.42-.71,3.87,2.67-5.44,4.79-10.61,6.84-15.65C44.72,36.14,48.11,28.13,51.73,20.41Z"/><path d="M75,36.45c.7-1.6,1.64-3.13,2.51-4.73,1.25-2.17,2.35-4.47,3.52-6.71.24-.45.55-1.15,0-1.21a4.65,4.65,0,0,1-2.74-1.22c-.16-.13-.4-.06-.63-.06l-3.53.57a1.61,1.61,0,0,0-1,.77A3.87,3.87,0,0,1,72.28,25a5.62,5.62,0,0,0-2.67-.64,10.14,10.14,0,0,0-3.69.89c-.63.19-1.17.45-1.8.7A45.08,45.08,0,0,0,51.64,35a13.18,13.18,0,0,0-3.77,7.44c-.4,2.62.94,4.34,3.84,5.41a89.42,89.42,0,0,0,9.58,3c.39.06.79.06.86.57a84.38,84.38,0,0,1-11,4.77A26.86,26.86,0,0,0,43,60.19c3.07-.81,5.58-2.11,8.49-2.26a81.93,81.93,0,0,1-8.64,4l-1.42.6a.92.92,0,0,0-.31.2V63a.5.5,0,0,0,.7.11,26.75,26.75,0,0,1,3.93-.75c2.12-.48,4.32-.82,6.45-1.15-2,1.23-4.48,1.7-6.76,2.69a1,1,0,0,0,.94.11c4.16-1,8.33-1.8,12.42-2.84a72.53,72.53,0,0,0,7.15-2.3c2.12-.83,3.92-2,4.08-4A16.45,16.45,0,0,0,69.46,49c-.71-2.37-3.85-4.22-7.3-4.41.86.63,2.12.83,2.82,1.91-2.9-1-5.57-1.85-8.09-2.8-1.33-.51-1.41-1.15-.7-2.17a13.82,13.82,0,0,1,3.3-3.26c1.64-1.35,3.61-2.43,5.1-3.84.08-.06.16-.06.23-.12l.47-.26c.08-.06.16-.06.24-.13s.55-.19.24-.38c-.08-.06-.4,0-.55,0a15.59,15.59,0,0,1,4-2.36c-1,3.38-2,6.57-3,10.09,1.88-1.47,2-3.19,3.22-4.85A9.89,9.89,0,0,1,69,39.5c-.23,1-.47,2-.7,2.94s-.94,1.66-.71,2.55c1.49-2.36,3-4.72,5-7.27,0,1.34-.87,2.17-.79,3.45C73,39.45,74.32,38.11,75,36.45ZM63.8,49.39a.49.49,0,0,1-.62.51,37,37,0,0,1-7.15-2A49.93,49.93,0,0,1,63.8,49.39ZM58.7,31.9A27.49,27.49,0,0,1,70.08,26C66.16,27.81,62.71,30.24,58.7,31.9Z"/></g></svg>